PathFileType	3	(X/Y/Z)	C:\Users\koon_\Desktop\
DataRate	CameraRate	NumFrames	NumMarkers	Units	OrigDataRate	OrigDataStartFrame	OrigNumFrames
100.0	100.0	9	27	mm	100.0	1526	2034	
Frame#	Time	GM:LFHD			GM:RFHD			GM:LBHD			GM:RBHD			GM:C7			GM:T10			GM:CLAV			GM:STRN			GM:RBAK			GM:LSHO			GM:LUPA			GM:LELB			GM:LFRA			GM:LWRA			GM:LWRB			GM:LFIN			GM:RSHO			GM:RUPA			GM:RELB			GM:RFRA			GM:RWRA			GM:RWRB			GM:RFIN			GM:LASI			GM:RASI			GM:LPSI			GM:RPSI			
		X1	Y1	Z1	X2	Y2	Z2	X3	Y3	Z3	X4	Y4	Z4	X5	Y5	Z5	X6	Y6	Z6	X7	Y7	Z7	X8	Y8	Z8	X9	Y9	Z9	X10	Y10	Z10	X11	Y11	Z11	X12	Y12	Z12	X13	Y13	Z13	X14	Y14	Z14	X15	Y15	Z15	X16	Y16	Z16	X17	Y17	Z17	X18	Y18	Z18	X19	Y19	Z19	X20	Y20	Z20	X21	Y21	Z21	X22	Y22	Z22	X23	Y23	Z23	X24	Y24	Z24	X25	Y25	Z25	X26	Y26	Z26	X27	Y27	Z27	
1526	15.25	72.791954	1601.4907	-273.78897	-80.95327	1597.0559	-270.8812	71.227303	1573.6863	-404.05829	-92.070213	1573.0823	-384.67557	-6.9461484	1414.501	-437.04263	-3.6931159	1220.845	-485.21268	2.0278444	1352.8474	-278.2345	1.5106899	1206.8318	-233.48044	-95.408157	1301.0277	-486.85443	168.18269	1386.0386	-372.2341	249.64481	1296.8385	-375.1918	327.52197	1100.5956	-405.70822	407.75302	1091.8046	-279.97958	455.82739	1067.0129	-231.94086	464.80096	1007.6917	-261.1373	521.39087	1039.3593	-185.99091	-185.478	1383.4763	-353.73721	-300.56998	1186.3113	-352.58365	-339.15311	1093.2788	-383.34409	-367.4805	1115.011	-295.12299	-422.52924	1069.7927	-186.79668	-432.36063	1012.66	-206.59346	-481.84445	1051.0544	-136.20244	137.21306	904.43402	-254.99797	-153.92502	905.00732	-256.88202				-92.21154	926.65948	-471.48175
1527	15.26	72.99437	1601.4349	-273.67944	-80.755692	1596.984	-270.74222	71.320602	1573.9771	-404.08646	-92.426987	1573.2562	-384.64307	-6.6753254	1414.3445	-437.37988	-3.4591486	1220.7893	-485.16666	2.2352014	1353.1755	-278.4043	1.7158881	1207.1132	-233.3996	-94.867821	1300.467	-487.14343	168.188	1386.3906	-372.86441	250.69324	1298.3689	-375.8548	331.5918	1103.1997	-404.8266	414.39536	1103.2089	-280.65781	464.16818	1082.4552	-232.57347	474.52716	1021.9208	-258.47519	531.93988	1060.2461	-187.3275	-184.95343	1383.7664	-354.95572	-302.83371	1188.9717	-352.00983	-342.36383	1095.4373	-380.578	-372.01913	1123.0906	-294.4696	-430.71225	1086.1074	-185.0732	-441.53229	1028.2694	-201.44812	-491.67978	1072.542	-134.95909	137.11325	904.32483	-255.03796	-153.96181	905.02917	-256.91455				-92.022499	926.68311	-471.57312
1528	15.27	73.178734	1601.3833	-273.67624	-80.543556	1596.9409	-270.56128	71.408363	1574.2922	-404.11639	-91.788185	1573.6169	-384.48297	-6.385457	1414.1884	-437.73843	-3.2242157	1220.6425	-485.10849	2.3614087	1353.4382	-278.65475	1.8990308	1207.3428	-233.36209	-94.287598	1299.8607	-487.39139	168.15082	1386.7568	-373.4646	251.7628	1299.9666	-376.56522	335.66492	1105.9419	-403.78903	420.35767	1114.8051	-281.35498	471.43802	1098.3971	-233.12144	483.84491	1036.8864	-256.14017	541.13153	1081.2681	-188.57045	-184.42543	1384.0435	-355.97516	-305.07489	1191.6387	-351.19403	-345.50418	1097.6794	-377.60971	-376.4014	1131.2052	-294.02094	-438.1059	1102.9287	-183.9492	-450.4491	1044.5397	-197.04953	-500.98312	1094.7898	-135.01709	137.03688	904.35889	-254.62389	-153.96385	905.02747	-256.987				-91.836456	926.64844	-471.5845
1529	15.28	73.330803	1601.3124	-273.65344	-80.422279	1596.8981	-270.4819	71.472275	1574.5704	-404.16763	-91.672485	1573.8848	-384.38266	-6.1535115	1414.0522	-438.1131	-2.9569683	1220.5415	-485.06219	2.4992754	1353.7063	-278.89441	2.21015	1207.6536	-233.30305	-93.723068	1299.1887	-487.52277	168.08614	1387.2001	-374.1279	252.77422	1301.6699	-377.18137	339.66714	1108.8414	-402.70102	425.6412	1126.7686	-281.99838	477.76514	1114.7802	-233.79735	492.33994	1052.9807	-253.78387	548.93152	1102.9503	-190.29282	-183.9966	1384.4121	-356.94949	-307.28912	1194.4056	-350.06757	-348.58371	1099.9816	-374.35977	-380.50928	1139.5552	-293.76578	-444.93912	1120.1676	-183.4594	-459.16425	1061.5713	-193.34097	-508.92038	1117.8571	-136.40901	136.9971	904.34778	-254.41119	-153.96814	905.02411	-256.97922				-91.662567	926.61499	-471.61017
1530	15.29	73.50032	1601.2313	-273.58917	-80.270241	1596.8373	-270.36472	71.533882	1574.8455	-404.19547	-91.609558	1574.1823	-384.31644	-5.9314942	1413.8937	-438.42923	-2.6992354	1220.3937	-485.00629	2.70662	1354.0021	-279.14844	2.4116983	1207.905	-233.311	-93.215202	1298.5441	-487.56723	168.01402	1387.6091	-374.76495	253.65549	1303.3999	-377.66147	343.79797	1111.8773	-401.47589	430.36957	1139.1768	-282.86536	483.54913	1131.7966	-234.99229	499.73126	1069.1823	-251.70433	555.83746	1124.9619	-192.63953	-183.56856	1384.797	-357.8255	-309.53412	1197.2761	-348.84921	-351.73224	1102.4943	-370.92114	-384.30316	1148.0281	-293.61127	-451.11151	1137.7302	-183.79877	-467.3533	1079.1802	-190.51669	-516.36145	1140.809	-139.06076	136.9697	904.27148	-254.2285	-153.95668	905.04828	-256.9711				-91.507339	926.63574	-471.63654
1531	15.3	73.665733	1601.1683	-273.57458	-80.103371	1596.8186	-270.23743	71.588692	1575.1576	-404.22559	-91.552299	1574.4556	-384.16727	-5.7967944	1413.7362	-438.79529	-2.4415894	1220.3047	-484.90103	2.9039087	1354.3046	-279.35754	2.7456293	1208.2186	-233.26924	-92.875854	1297.8964	-487.49731	167.88596	1388.0294	-375.40213	254.50557	1305.1925	-377.97781	347.73114	1115.3596	-400.00583	434.01019	1151.165	-283.64926	488.12122	1148.5696	-236.4317	507.37625	1086.3663	-250.84967	561.51709	1147.4541	-195.49162	-183.21873	1385.2811	-358.64127	-311.70816	1200.3673	-347.44473	-355.18591	1105.3961	-367.40842	-388.00711	1156.8167	-293.84921	-456.48834	1155.2877	-184.79639	-475.06018	1097.054	-188.57724	-523.26721	1163.3235	-143.10118	136.99748	904.22205	-254.05669	-153.96252	905.07019	-256.9137				-91.336243	926.60199	-471.5451
1532	15.31	73.821854	1601.08	-273.54858	-79.862953	1596.8091	-269.95346	71.618317	1575.4348	-404.2966	-91.638969	1574.7324	-384.21304	-5.7237568	1413.5708	-439.06522	-2.1782944	1220.1803	-484.85385	3.0661581	1354.6001	-279.60852	3.0352457	1208.574	-233.22665	-92.560768	1297.3186	-487.37338	167.7468	1388.465	-376.05881	255.33748	1306.9854	-378.30386	352.01288	1118.7312	-398.41452	437.20963	1163.6951	-284.79315	491.7449	1165.3423	-237.83945	513.73004	1103.6547	-249.92339	565.93805	1170.2997	-198.78931	-182.80902	1385.7959	-359.28119	-313.82297	1203.6503	-345.93311	-358.73972	1108.8372	-363.84708	-390.70609	1165.4847	-293.58508	-461.64502	1172.8372	-186.53336	-482.04489	1115.1851	-187.55159	-528.10919	1185.244	-146.60886	137.05876	904.19659	-253.92479	-153.89604	905.11646	-256.79208				-91.206665	926.65228	-471.4574
1533	15.32	73.998566	1601.014	-273.54007	-79.702919	1596.746	-269.75763	71.649071	1575.7527	-404.30737	-91.946129	1574.891	-384.11374	-5.6379113	1413.4159	-439.32071	-2.0270119	1220.0847	-484.69418	3.1905866	1354.9099	-279.86691	3.3495815	1208.9038	-233.18813	-92.316521	1296.8129	-487.26929	167.5381	1388.8862	-376.64731	256.1517	1308.8314	-378.51776	356.21533	1122.4604	-396.80441	439.94058	1175.9397	-285.92337	494.65964	1182.3656	-239.70428	519.43188	1121.3953	-249.52779	568.8064	1193.1902	-202.56964	-182.41243	1386.3622	-359.88208	-315.95184	1207.3135	-344.49615	-362.30728	1112.7214	-360.3013	-393.19647	1174.3075	-293.71161	-465.40198	1190.0509	-188.85619	-488.52335	1133.3048	-187.22954	-533.16052	1207.1044	-151.82507	137.11694	904.16382	-253.74594	-153.78973	905.16559	-256.66339				-91.119568	926.69	-471.28165
1534	15.33	74.154892	1600.9397	-273.52094	-79.554916	1596.6865	-269.57135	71.649651	1576.0387	-404.3168	-91.977303	1575.1232	-384.0257	-5.5795398	1413.2996	-439.58563	-1.9250189	1219.9558	-484.4769	3.3656929	1355.2123	-280.02597	3.7588718	1209.2705	-233.04515	-92.13533	1296.3962	-487.10083	167.36462	1389.3292	-377.22565	256.90817	1310.7184	-378.72736	360.39868	1126.3789	-395.13055	442.04974	1188.4266	-287.24902	496.56894	1199.3688	-241.81561	524.37921	1139.4303	-249.57394	570.12744	1216.0779	-206.73067	-181.94899	1387.0093	-360.46902	-318.05432	1211.2471	-343.3688	-365.98883	1116.9119	-356.82556	-395.59064	1183.1847	-294.16278	-469.37799	1207.2086	-191.92204	-494.20053	1151.3623	-187.52049	-536.1214	1228.6957	-157.72902	137.27295	904.15118	-253.56895	-153.6756	905.21045	-256.51141				-91.065033	926.73846	-471.16589
